PathFileType	4	(X/Y/Z)	/Users/itak/Documents/Research/Walk-IL/dataset/trc/00023_00004.trc
DataRate	CameraRate	NumFrames	NumMarkers	Units	OrigDataRate	OrigDataStartFrame	OrigNumFrames
100.000000	100.000000	4	53	mm	100.000000	738	844
Frame#	Time	RPSI			LPSI			L3			STRN			T10			C7			CLAV			RBAK			LBAK			LSHO			LUPA			LAEL			LAOL			LWTS			LWPS			LFRA			LIFD			LHPS			LHTS			RSHO			RUPA			RAEL			RAOL			RWTS			RWPS			RFRA			RIFD			RHTS			RHPS			RBHD			LFHD			RFHD			LBHD			LHIP			RHIP			RASI			LASI			LKNE			LTHI			LANK			LTIP			LTOE			LMT1			LMT5			LHEE			RKNE			RTHI			RANK			RTIP			RTOE			RMT1			RMT5			RHEE			
		X1	Y1	Z1	X2	Y2	Z2	X3	Y3	Z3	X4	Y4	Z4	X5	Y5	Z5	X6	Y6	Z6	X7	Y7	Z7	X8	Y8	Z8	X9	Y9	Z9	X10	Y10	Z10	X11	Y11	Z11	X12	Y12	Z12	X13	Y13	Z13	X14	Y14	Z14	X15	Y15	Z15	X16	Y16	Z16	X17	Y17	Z17	X18	Y18	Z18	X19	Y19	Z19	X20	Y20	Z20	X21	Y21	Z21	X22	Y22	Z22	X23	Y23	Z23	X24	Y24	Z24	X25	Y25	Z25	X26	Y26	Z26	X27	Y27	Z27	X28	Y28	Z28	X29	Y29	Z29	X30	Y30	Z30	X31	Y31	Z31	X32	Y32	Z32	X33	Y33	Z33	X34	Y34	Z34	X35	Y35	Z35	X36	Y36	Z36	X37	Y37	Z37	X38	Y38	Z38	X39	Y39	Z39	X40	Y40	Z40	X41	Y41	Z41	X42	Y42	Z42	X43	Y43	Z43	X44	Y44	Z44	X45	Y45	Z45	X46	Y46	Z46	X47	Y47	Z47	X48	Y48	Z48	X49	Y49	Z49	X50	Y50	Z50	X51	Y51	Z51	X52	Y52	Z52	X53	Y53	Z53	

739	7.38	-285.8531799316406	1079.903198242188	972.09375	-284.2933349609375	1072.441284179688	809.0951538085938	-291.5832824707031	1140.115966796875	883.5223388671875	-60.42836761474609	1324.709350585938	899.41796875	-314.2967834472656	1285.551879882812	881.84716796875	-252.4837951660156	1550.901611328125	874.884033203125	-98.68813323974609	1451.335693359375	892.4320068359375	-317.9024963378906	1416.607299804688	951.6558837890625	-264.3842163085938	1511.999267578125	777.239501953125	-156.8260345458984	1513.850219726562	712.7135620117188	-192.5235748291016	1394.409057617188	631.4135131835938	-215.6165618896484	1180.879516601562	599.2625732421875	-272.7948913574219	1170.982788085938	687.394775390625	-132.6387939453125	927.29345703125	652.5995483398438	-209.59228515625	912.3607788085938	610.84228515625	-206.7896118164062	1064.509643554688	591.2264404296875	-110.4675140380859	739.4869384765625	674.4912109375	-178.8645324707031	821.7991333007812	613.2598876953125	-113.7447357177734	830.400634765625	641.821533203125	-190.8573150634766	1533.169067382812	1050.55419921875	-214.2194519042969	1470.39208984375	1124.926513671875	-267.7279968261719	1211.715087890625	1178.9833984375	-267.739013671875	1173.99658203125	1086.571899414062	-117.0426788330078	960.029296875	1167.556030273438	-178.0358581542969	943.0203247070312	1234.764404296875	-251.6204986572266	1135.699951171875	1203.109008789062	-71.36957550048828	777.7855224609375	1169.00732421875	-69.92355346679688	857.3648681640625	1188.670166015625	-123.4856033325195	849.9305419921875	1240.296752929688	-180.1211547851562	1723.2119140625	831.1879272460938	3.540425300598145	1722.9443359375	949.5205688476562	0.4202393591403961	1726.394409179688	850.6278076171875	-169.4099884033203	1714.673583984375	975.1860961914062	-181.3589172363281	969.2572021484375	696.5139770507812	-177.5251159667969	963.587890625	1074.262451171875	-72.49079132080078	998.12744140625	1003.609558105469	-72.63983154296875	1018.618041992188	769.0537109375	-38.72222900390625	535.0154418945312	763.8120727539062	-94.58525085449219	664.9862670898438	720.4828491210938	-214.648681640625	58.18962097167969	780.1927490234375	-154.0500030517578	301.8235168457031	752.332763671875	-3.260569334030151	61.31009292602539	859.0975341796875	-62.63454818725586	68.1588134765625	871.8491821289062	-89.78373718261719	55.62148284912109	770.8848876953125	-287.0807495117188	72.54588317871094	826.537109375	-153.5787048339844	528.6057739257812	1027.670166015625	-149.6363220214844	798.867431640625	1071.5185546875	-252.9362640380859	46.10142517089844	978.818115234375	-174.9331665039062	404.4276123046875	1023.671264648438	-17.09796333312988	45.32292938232422	985.642333984375	-73.05558013916016	50.9146614074707	944.3746948242188	-111.9405136108398	43.52189636230469	1034.250244140625	-297.5670166015625	48.6960334777832	923.4715576171875	
740	7.390000000000001	-283.396240234375	1079.806274414062	974.2865600585938	-282.4888916015625	1072.517944335938	811.2999877929688	-289.5361633300781	1139.907348632812	885.81298828125	-58.64171981811523	1324.879760742188	900.6104125976562	-312.4518127441406	1285.340454101562	884.3832397460938	-251.1311950683594	1550.811767578125	877.257568359375	-97.00411987304688	1451.465698242188	893.8382568359375	-315.8472900390625	1416.359008789062	954.3075561523438	-263.5186157226562	1511.900512695312	779.650146484375	-156.3397064208984	1513.982177734375	714.503173828125	-192.2304382324219	1394.4619140625	633.395263671875	-214.8438720703125	1180.844604492188	601.375244140625	-271.6194458007812	1170.755249023438	689.8131713867188	-130.701171875	927.6005249023438	654.44091796875	-207.8382110595703	912.3668212890625	613.0639038085938	-205.6624145507812	1064.504760742188	593.3360595703125	-107.6593856811523	739.8922729492188	676.2496337890625	-176.6795806884766	821.92431640625	615.32861328125	-111.4456481933594	830.8176879882812	643.5933227539062	-188.4548187255859	1533.104370117188	1052.572143554688	-211.2812194824219	1470.175415039062	1127.026000976562	-263.990966796875	1211.1865234375	1180.640625	-264.4171752929688	1173.70458984375	1088.151977539062	-112.9044189453125	959.747802734375	1167.750366210938	-173.506103515625	942.4996337890625	1235.270385742188	-247.5731658935547	1135.132202148438	1204.519775390625	-67.08038330078125	777.5238647460938	1168.503173828125	-65.57850646972656	857.083251953125	1188.336669921875	-118.8037490844727	849.4497680664062	1240.25244140625	-181.0587615966797	1723.056884765625	833.2843017578125	4.117850303649902	1724.512451171875	949.2225952148438	-0.3197479248046875	1727.848266601562	850.3696899414062	-168.4342498779297	1714.706909179688	977.1241455078125	-179.9585571289062	969.5113525390625	698.2263793945312	-174.6311187744141	963.3119506835938	1075.886962890625	-69.98178863525391	998.002197265625	1004.865539550781	-70.95433044433594	1018.781677246094	770.3362426757812	-39.12236404418945	535.0642700195312	764.8672485351562	-94.47111511230469	664.9606323242188	722.1071166992188	-208.5898132324219	56.54822158813477	784.4368286132812	-151.6850280761719	300.7948608398438	755.3355102539062	4.09403657913208	61.35840225219727	859.7197875976562	-55.09085845947266	67.70041656494141	873.5389404296875	-83.79810333251953	55.096923828125	773.0367431640625	-280.4022521972656	70.19029998779297	832.0064697265625	-152.65771484375	528.3558959960938	1028.26025390625	-147.2589263916016	798.4915771484375	1072.522705078125	-252.9279937744141	46.11780166625977	978.8597412109375	-174.4178619384766	404.307373046875	1024.203857421875	-17.1185359954834	45.3032112121582	985.6284790039062	-73.04225158691406	50.91831588745117	944.3717651367188	-111.9213790893555	43.50823211669922	1034.2587890625	-297.6036376953125	48.79552841186523	923.556640625	
741	7.4	-280.9883117675781	1079.681884765625	976.4028930664062	-280.7245178222656	1072.538696289062	813.4237670898438	-287.5393676757812	1139.671264648438	888.0045776367188	-56.92976760864258	1325.018798828125	901.7492065429688	-310.6640014648438	1285.098022460938	886.8020629882812	-249.8404388427734	1550.676513671875	879.5411376953125	-95.39826202392578	1451.559204101562	895.1889038085938	-313.8683776855469	1416.080322265625	956.8367919921875	-262.6835632324219	1511.769775390625	781.9560546875	-155.8603973388672	1514.085327148438	716.2225341796875	-191.905029296875	1394.488159179688	635.2943115234375	-214.0272979736328	1180.77587890625	603.4115600585938	-270.4313354492188	1170.50732421875	692.1244506835938	-128.7504272460938	927.8826293945312	656.2481079101562	-206.0522613525391	912.3421630859375	615.2316284179688	-204.4981079101562	1064.471435546875	595.37841796875	-104.8736572265625	740.2659912109375	677.9948120117188	-174.4784088134766	822.0228271484375	617.3563842773438	-109.1454544067383	831.2125244140625	645.3384399414062	-186.1602172851562	1532.999755859375	1054.508056640625	-208.4572143554688	1469.92236328125	1129.023559570312	-260.3957824707031	1210.612548828125	1182.157836914062	-261.2041320800781	1173.371704101562	1089.583984375	-108.9627456665039	959.3937377929688	1167.856567382812	-169.2259521484375	941.9158935546875	1235.62744140625	-243.6983795166016	1134.512573242188	1205.778930664062	-63.00271987915039	777.1910400390625	1167.921875	-61.44862747192383	856.735595703125	1187.936767578125	-114.3913421630859	848.8925170898438	1240.098388671875	-182.0455627441406	1722.835327148438	835.330078125	4.562335968017578	1726.037963867188	948.9058837890625	-1.157617211341858	1729.245849609375	850.1117553710938	-167.5731201171875	1714.6943359375	978.9843139648438	-178.6018218994141	969.7047729492188	699.8633422851562	-171.7897491455078	963.039794921875	1077.446044921875	-67.49752807617188	997.8713989257812	1006.056274414062	-69.31764221191406	1018.901733398438	771.5596923828125	-39.52693176269531	535.0240478515625	765.9326171875	-94.35896301269531	664.8871459960938	723.6474609375	-202.9812316894531	55.01752853393555	788.2294921875	-149.4898529052734	299.83544921875	758.0845947265625	10.66096782684326	61.21934127807617	860.6520385742188	-48.35733413696289	67.17511749267578	875.314208984375	-78.27253723144531	54.37562561035156	775.2022094726562	-274.2724609375	68.14601135253906	836.7489013671875	-151.7200317382812	528.1138305664062	1028.842529296875	-144.9662322998047	798.1183471679688	1073.529541015625	-252.9212188720703	46.13460159301758	978.9072265625	-173.8709411621094	404.1902465820312	1024.732177734375	-17.14325141906738	45.28163909912109	985.612548828125	-73.03154754638672	50.92354965209961	944.3714599609375	-111.9032592773438	43.49423980712891	1034.270263671875	-297.6458435058594	48.8981819152832	923.6471557617188	
742	7.41	-278.6275939941406	1079.525146484375	978.4436645507812	-278.9964599609375	1072.498046875	815.4634399414062	-285.5916137695312	1139.405395507812	890.0980834960938	-55.29238510131836	1325.128540039062	902.8350830078125	-308.9325561523438	1284.824340820312	889.1046142578125	-248.6118774414062	1550.497680664062	881.72998046875	-93.87862396240234	1451.616821289062	896.488037109375	-311.9659423828125	1415.774780273438	959.2489624023438	-261.8801879882812	1511.6064453125	784.1556396484375	-155.3885650634766	1514.155883789062	717.87158203125	-191.5467987060547	1394.484497070312	637.108642578125	-213.1667785644531	1180.67041015625	605.3672485351562	-269.2264709472656	1170.23486328125	694.3255615234375	-126.7912063598633	928.1329956054688	658.022705078125	-204.2345428466797	912.284912109375	617.3401489257812	-203.2936553955078	1064.405151367188	597.3515014648438	-102.1203765869141	740.6012573242188	679.7340087890625	-172.2647247314453	822.0900268554688	619.345458984375	-106.8513793945312	831.5686645507812	647.0611572265625	-183.9781188964844	1532.857788085938	1056.3642578125	-205.7493743896484	1469.633178710938	1130.920654296875	-256.9373168945312	1209.993408203125	1183.544677734375	-258.101806640625	1172.9990234375	1090.875854492188	-105.2257308959961	958.9649658203125	1167.879028320312	-165.190673828125	941.267822265625	1235.849487304688	-239.9955139160156	1133.84130859375	1206.895874023438	-59.13308715820312	776.7918090820312	1167.272705078125	-57.53305435180664	856.3203735351562	1187.475341796875	-110.2387771606445	848.26416015625	1239.844116210938	-183.0745086669922	1722.5458984375	837.3239135742188	4.881729125976562	1727.515869140625	948.5753784179688	-2.085962772369385	1730.5810546875	849.8584594726562	-166.8131408691406	1714.634765625	980.7703857421875	-177.2796630859375	969.8365478515625	701.429443359375	-168.9973449707031	962.7710571289062	1078.940551757812	-65.03799438476562	997.7353515625	1007.177856445312	-67.72017669677734	1018.98388671875	772.721923828125	-39.90666198730469	534.8961181640625	767.0338745117188	-94.23162078857422	664.7606201171875	725.0914306640625	-197.8131103515625	53.57733154296875	791.5439453125	-147.4456024169922	298.9443054199219	760.5701293945312	16.45767974853516	60.81301879882812	861.9515380859375	-42.42337417602539	66.52613067626953	877.206787109375	-73.17752838134766	53.42486190795898	777.3906860351562	-268.7032470703125	66.39791870117188	840.7195434570312	-150.7743072509766	527.8673706054688	1029.426025390625	-142.7637939453125	797.7462158203125	1074.537475585938	-252.9164581298828	46.15126419067383	978.9595336914062	-173.3050994873047	404.0726928710938	1025.25048828125	-17.17012596130371	45.25953674316406	985.5947875976562	-73.02372741699219	50.93000030517578	944.3739013671875	-111.8872451782227	43.48049163818359	1034.282958984375	-297.6907043457031	48.99964141845703	923.7398681640625	
